{
    "asset" : {
        "copyright" : "FurWaz",
        "generator" : "Khronos glTF Blender I/O v1.5.17",
        "version" : "2.0"
    },
    "scene" : 0,
    "scenes" : [
        {
            "name" : "Scene",
            "nodes" : [
                0
            ]
        }
    ],
    "nodes" : [
        {
            "mesh" : 0,
            "name" : "Cube",
            "scale" : [
                0.5,
                0.5,
                1
            ],
            "translation" : [
                0,
                0.5,
                0
            ]
        }
    ],
    "materials" : [
        {
            "doubleSided" : true,
            "name" : "Material",
            "pbrMetallicRoughness" : {
                "baseColorFactor" : [
                    0.21401694416999817,
                    0.21401694416999817,
                    0.21401694416999817,
                    1
                ],
                "metallicFactor" : 0,
                "roughnessFactor" : 0.4000000059604645
            }
        },
        {
            "doubleSided" : true,
            "name" : "Material.001",
            "pbrMetallicRoughness" : {
                "baseColorFactor" : [
                    0.3800555467605591,
                    0.11410430073738098,
                    0.05987156182527542,
                    1
                ],
                "metallicFactor" : 0,
                "roughnessFactor" : 0.5
            }
        },
        {
            "doubleSided" : true,
            "name" : "Material.002",
            "pbrMetallicRoughness" : {
                "baseColorFactor" : [
                    0.07321580499410629,
                    0.049531180411577225,
                    0.02543538063764572,
                    1
                ],
                "metallicFactor" : 0,
                "roughnessFactor" : 0.5
            }
        },
        {
            "doubleSided" : true,
            "name" : "Material.003",
            "pbrMetallicRoughness" : {
                "baseColorFactor" : [
                    0.04736771434545517,
                    0.05988641828298569,
                    0.10048123449087143,
                    1
                ],
                "metallicFactor" : 0,
                "roughnessFactor" : 0.5
            }
        }
    ],
    "meshes" : [
        {
            "name" : "Cube.001",
            "primitives" : [
                {
                    "attributes" : {
                        "POSITION" : 0,
                        "NORMAL" : 1,
                        "TEXCOORD_0" : 2
                    },
                    "indices" : 3,
                    "material" : 0
                },
                {
                    "attributes" : {
                        "POSITION" : 4,
                        "NORMAL" : 5,
                        "TEXCOORD_0" : 6
                    },
                    "indices" : 7,
                    "material" : 1
                },
                {
                    "attributes" : {
                        "POSITION" : 8,
                        "NORMAL" : 9,
                        "TEXCOORD_0" : 10
                    },
                    "indices" : 11,
                    "material" : 2
                },
                {
                    "attributes" : {
                        "POSITION" : 12,
                        "NORMAL" : 13,
                        "TEXCOORD_0" : 14
                    },
                    "indices" : 15,
                    "material" : 3
                }
            ]
        }
    ],
    "accessors" : [
        {
            "bufferView" : 0,
            "componentType" : 5126,
            "count" : 136,
            "max" : [
                16,
                3.1999998092651367,
                8
            ],
            "min" : [
                -16,
                -1,
                -8
            ],
            "type" : "VEC3"
        },
        {
            "bufferView" : 1,
            "componentType" : 5126,
            "count" : 136,
            "type" : "VEC3"
        },
        {
            "bufferView" : 2,
            "componentType" : 5126,
            "count" : 136,
            "type" : "VEC2"
        },
        {
            "bufferView" : 3,
            "componentType" : 5123,
            "count" : 204,
            "type" : "SCALAR"
        },
        {
            "bufferView" : 4,
            "componentType" : 5126,
            "count" : 60,
            "max" : [
                0.8284268379211426,
                1,
                5.414214611053467
            ],
            "min" : [
                -7,
                -1,
                -5.414213180541992
            ],
            "type" : "VEC3"
        },
        {
            "bufferView" : 5,
            "componentType" : 5126,
            "count" : 60,
            "type" : "VEC3"
        },
        {
            "bufferView" : 6,
            "componentType" : 5126,
            "count" : 60,
            "type" : "VEC2"
        },
        {
            "bufferView" : 7,
            "componentType" : 5123,
            "count" : 90,
            "type" : "SCALAR"
        },
        {
            "bufferView" : 8,
            "componentType" : 5126,
            "count" : 192,
            "max" : [
                0.8284268379211426,
                3.000000238418579,
                5.414214611053467
            ],
            "min" : [
                -7,
                0.9999997615814209,
                -5.414213180541992
            ],
            "type" : "VEC3"
        },
        {
            "bufferView" : 9,
            "componentType" : 5126,
            "count" : 192,
            "type" : "VEC3"
        },
        {
            "bufferView" : 10,
            "componentType" : 5126,
            "count" : 192,
            "type" : "VEC2"
        },
        {
            "bufferView" : 11,
            "componentType" : 5123,
            "count" : 288,
            "type" : "SCALAR"
        },
        {
            "bufferView" : 12,
            "componentType" : 5126,
            "count" : 48,
            "max" : [
                0.8284268379211426,
                3.1999998092651367,
                5.414214611053467
            ],
            "min" : [
                -7,
                3,
                -5.414213180541992
            ],
            "type" : "VEC3"
        },
        {
            "bufferView" : 13,
            "componentType" : 5126,
            "count" : 48,
            "type" : "VEC3"
        },
        {
            "bufferView" : 14,
            "componentType" : 5126,
            "count" : 48,
            "type" : "VEC2"
        },
        {
            "bufferView" : 15,
            "componentType" : 5123,
            "count" : 72,
            "type" : "SCALAR"
        }
    ],
    "bufferViews" : [
        {
            "buffer" : 0,
            "byteLength" : 1632,
            "byteOffset" : 0
        },
        {
            "buffer" : 0,
            "byteLength" : 1632,
            "byteOffset" : 1632
        },
        {
            "buffer" : 0,
            "byteLength" : 1088,
            "byteOffset" : 3264
        },
        {
            "buffer" : 0,
            "byteLength" : 408,
            "byteOffset" : 4352
        },
        {
            "buffer" : 0,
            "byteLength" : 720,
            "byteOffset" : 4760
        },
        {
            "buffer" : 0,
            "byteLength" : 720,
            "byteOffset" : 5480
        },
        {
            "buffer" : 0,
            "byteLength" : 480,
            "byteOffset" : 6200
        },
        {
            "buffer" : 0,
            "byteLength" : 180,
            "byteOffset" : 6680
        },
        {
            "buffer" : 0,
            "byteLength" : 2304,
            "byteOffset" : 6860
        },
        {
            "buffer" : 0,
            "byteLength" : 2304,
            "byteOffset" : 9164
        },
        {
            "buffer" : 0,
            "byteLength" : 1536,
            "byteOffset" : 11468
        },
        {
            "buffer" : 0,
            "byteLength" : 576,
            "byteOffset" : 13004
        },
        {
            "buffer" : 0,
            "byteLength" : 576,
            "byteOffset" : 13580
        },
        {
            "buffer" : 0,
            "byteLength" : 576,
            "byteOffset" : 14156
        },
        {
            "buffer" : 0,
            "byteLength" : 384,
            "byteOffset" : 14732
        },
        {
            "buffer" : 0,
            "byteLength" : 144,
            "byteOffset" : 15116
        }
    ],
    "buffers" : [
        {
            "byteLength" : 15260,
            "uri" : "data:application/octet-stream;base64,"
        }
    ]
}
